<svg width="168" height="92" viewBox="0 0 168 92" fill="none" xmlns="http://www.w3.org/2000/svg">
<path d="M80 29.8838C80.0032 28.9143 79.8027 27.9547 79.4113 27.0661C79.0199 26.1775 78.4461 25.3792 77.7265 24.7221L70.7731 18.4636C69.6941 17.4984 68.285 16.9756 66.8313 17.0014H31.4739C30.9401 16.9874 30.409 17.0809 29.9128 17.2764C29.4166 17.4719 28.9657 17.7652 28.5874 18.1385C28.2091 18.5118 27.9114 18.9573 27.7122 19.4481C27.5131 19.9388 27.4167 20.4645 27.4288 20.9933L27.045 56.7162C26.9446 57.3548 27.0129 58.0083 27.2431 58.613C27.4734 59.2178 27.8578 59.7532 28.3589 60.1671L36.3309 67.7708C37.4375 68.5905 38.7877 69.0226 40.1693 68.9991H77.0031C77.7861 68.9991 78.5372 68.691 79.0909 68.1425C79.6446 67.5941 79.9557 66.8502 79.9557 66.0746V53.9964C79.956 53.2877 79.8153 52.5859 79.5418 51.931C79.2682 51.2762 78.867 50.6812 78.3613 50.1799L76.2206 48.0158C76.0593 47.8542 75.9687 47.6362 75.9687 47.4089C75.9687 47.1817 76.0593 46.9636 76.2206 46.8021L78.4498 44.5063C79.4228 43.4895 79.953 42.1344 79.9261 40.7337L80 29.8838ZM71.9984 25.8626H39.8445C39.7127 25.8631 39.5821 25.8375 39.4604 25.7873C39.3387 25.737 39.2284 25.6632 39.1359 25.5702L34.9432 21.5636C34.9191 21.5411 34.9025 21.5119 34.8957 21.4798C34.8888 21.4477 34.892 21.4143 34.9049 21.3841C34.9177 21.3538 34.9396 21.3282 34.9676 21.3106C34.9955 21.2931 35.0282 21.2844 35.0613 21.2858H67.0085C67.3886 21.2873 67.7535 21.4339 68.0271 21.6952L72.1165 25.4971C72.1503 25.5186 72.1758 25.5509 72.1886 25.5886C72.2015 25.6263 72.201 25.6672 72.1872 25.7047C72.1735 25.7421 72.1473 25.7737 72.113 25.7945C72.0787 25.8152 72.0383 25.8238 71.9984 25.8188V25.8626ZM31.7249 24.4881L35.9028 28.4216C36.0441 28.5587 36.1561 28.7226 36.2322 28.9034C36.3083 29.0843 36.3469 29.2785 36.3457 29.4744V61.41C36.3459 61.4439 36.3361 61.4772 36.3175 61.5057C36.299 61.5343 36.2725 61.5569 36.2413 61.5708C36.21 61.5848 36.1753 61.5894 36.1415 61.5842C36.1076 61.579 36.076 61.5642 36.0504 61.5416L31.8282 57.5058C31.5555 57.2334 31.4017 56.8658 31.4001 56.4822V24.5758C31.3895 24.5348 31.3943 24.4914 31.4135 24.4536C31.4327 24.4158 31.4651 24.3861 31.5047 24.3701C31.5442 24.354 31.5883 24.3527 31.6288 24.3664C31.6693 24.38 31.7034 24.4076 31.7249 24.4442V24.4881ZM75.202 41.7573L71.1421 45.7639C70.9239 45.9798 70.7507 46.2362 70.6326 46.5185C70.5144 46.8008 70.4536 47.1034 70.4536 47.4089C70.4536 47.7145 70.5144 48.0171 70.6326 48.2993C70.7507 48.5816 70.9239 48.838 71.1421 49.054L75.202 53.0605C75.5008 53.3669 75.6699 53.7751 75.6744 54.2011V64.159C75.6744 64.3064 75.6153 64.4477 75.5101 64.5519C75.4049 64.6561 75.2622 64.7147 75.1134 64.7147H41.2913C41.1425 64.7147 40.9998 64.6561 40.8946 64.5519C40.7894 64.4477 40.7303 64.3064 40.7303 64.159V30.6588C40.7303 30.5114 40.7894 30.3701 40.8946 30.2659C40.9998 30.1617 41.1425 30.1032 41.2913 30.1032H75.1134C75.2622 30.1032 75.4049 30.1617 75.5101 30.2659C75.6153 30.3701 75.6744 30.5114 75.6744 30.6588V40.6168C75.6699 41.0428 75.5008 41.4509 75.202 41.7573Z" fill="white"/>
<path d="M135 29.9489C134.977 28.2972 134.291 26.722 133.092 25.5694L125.696 18.5621C124.763 17.6749 123.515 17.1826 122.22 17.1898H109.839C109.289 17.1818 108.744 17.2837 108.235 17.4894C107.727 17.6952 107.266 18.0005 106.88 18.3869L104.366 20.9124C104.213 21.052 104.012 21.1294 103.804 21.1294C103.595 21.1294 103.394 21.052 103.241 20.9124L100.682 18.2701C99.8135 17.4525 98.6583 16.9976 97.4577 17H85.8904C85.3795 17 84.8736 17.0993 84.4016 17.2923C83.9296 17.4852 83.5007 17.768 83.1395 18.1245C82.7782 18.4811 82.4917 18.9043 82.2962 19.3701C82.1007 19.836 82 20.3352 82 20.8394V57.3358C81.9976 57.8126 82.0933 58.2849 82.2815 58.7241C82.4697 59.1633 82.7463 59.5601 83.0947 59.8905L90.6386 67.0438C91.91 68.2885 93.6256 68.9909 95.4164 69H132.027C132.811 69 133.564 68.6924 134.119 68.1448C134.674 67.5973 134.985 66.8546 134.985 66.0803L135 29.9489ZM123.048 21.7737L127.101 25.5694C127.128 25.5929 127.147 25.6241 127.156 25.6588C127.165 25.6934 127.162 25.7298 127.15 25.7631C127.137 25.7964 127.114 25.8251 127.084 25.8452C127.054 25.8654 127.019 25.8761 126.983 25.8759H119.705C119.59 25.877 119.476 25.8556 119.369 25.813C119.263 25.7704 119.166 25.7075 119.084 25.6277L114.898 21.6861C114.865 21.6564 114.842 21.6177 114.832 21.5751C114.822 21.5324 114.825 21.4878 114.841 21.4469C114.857 21.4061 114.885 21.3709 114.922 21.3458C114.958 21.3208 115.001 21.3072 115.046 21.3066H121.909C122.336 21.3103 122.744 21.4778 123.048 21.7737ZM109.543 22.6496L115.001 27.7883C115.09 27.8782 115.139 27.9987 115.139 28.1241C115.139 28.2495 115.09 28.3699 115.001 28.4599L113.522 29.8467C113.4 29.9662 113.235 30.0332 113.063 30.0332C112.892 30.0332 112.727 29.9662 112.605 29.8467L109.291 26.5912L107.028 24.4745C107.006 24.4504 106.994 24.4192 106.994 24.3869C106.994 24.3546 107.006 24.3234 107.028 24.2993L108.729 22.6496C108.839 22.547 108.985 22.4898 109.136 22.4898C109.287 22.4898 109.433 22.547 109.543 22.6496ZM98.3749 22.0803L102.117 25.5694C102.144 25.5929 102.164 25.6241 102.172 25.6588C102.181 25.6934 102.179 25.7298 102.166 25.7631C102.153 25.7964 102.13 25.8251 102.1 25.8452C102.07 25.8654 102.035 25.8761 101.999 25.8759H94.7656C94.5381 25.8758 94.3199 25.7866 94.1591 25.6277L89.973 21.6861C89.9404 21.6564 89.9177 21.6177 89.9077 21.5751C89.8976 21.5324 89.9008 21.4878 89.9167 21.4469C89.9326 21.4061 89.9606 21.3709 89.997 21.3458C90.0334 21.3208 90.0765 21.3072 90.1209 21.3066H96.4815C97.1897 21.3157 97.8674 21.5927 98.3749 22.0803ZM86.5412 24.4599L90.683 28.3869C90.8651 28.5584 91.01 28.7645 91.1092 28.9928C91.2083 29.2212 91.2596 29.4669 91.2599 29.7153V61.4818C91.2626 61.5116 91.256 61.5415 91.2409 61.5675C91.2258 61.5934 91.203 61.6142 91.1755 61.627C91.1481 61.6397 91.1173 61.6438 91.0874 61.6387C91.0575 61.6337 91.03 61.6196 91.0084 61.5985L86.7779 57.5693C86.6223 57.4223 86.4987 57.2455 86.4148 57.0497C86.3309 56.8539 86.2883 56.6433 86.2897 56.4307V24.5621C86.2902 24.5335 86.299 24.5057 86.3153 24.482C86.3316 24.4584 86.3546 24.44 86.3813 24.4291C86.4081 24.4182 86.4375 24.4153 86.4659 24.4208C86.4944 24.4263 86.5205 24.4399 86.5412 24.4599ZM130.059 64.7226H96.1708C96.0321 64.7227 95.8989 64.6693 95.7994 64.5739C95.7 64.4785 95.6422 64.3485 95.6383 64.2117V30.635C95.6383 30.5111 95.6882 30.3923 95.777 30.3047C95.8657 30.2171 95.9861 30.1679 96.1117 30.1679H106.229C106.457 30.1669 106.683 30.2102 106.893 30.2953C107.104 30.3805 107.296 30.5059 107.457 30.6642L111.688 34.7664C111.887 34.9673 112.126 35.1268 112.388 35.2357C112.651 35.3446 112.934 35.4007 113.219 35.4007C113.504 35.4007 113.786 35.3446 114.049 35.2357C114.312 35.1268 114.55 34.9673 114.75 34.7664L118.921 30.6642C119.079 30.505 119.268 30.3789 119.476 30.2936C119.685 30.2083 119.908 30.1655 120.134 30.1679H130.163C130.312 30.1679 130.455 30.2263 130.56 30.3304C130.666 30.4344 130.725 30.5755 130.725 30.7226V64.1387C130.726 64.2219 130.708 64.3043 130.674 64.3804C130.64 64.4565 130.59 64.5244 130.527 64.5797C130.463 64.635 130.389 64.6764 130.309 64.701C130.228 64.7257 130.143 64.733 130.059 64.7226Z" fill="white"/>
<path d="M13.7305 84.5244C13.6933 84.1514 13.5366 83.8609 13.2603 83.6531C12.9866 83.4452 12.6306 83.3412 12.1922 83.3412C11.884 83.3412 11.6197 83.3911 11.3991 83.4907C11.1786 83.5904 11.0099 83.7257 10.893 83.8965C10.7761 84.0674 10.7163 84.2625 10.7137 84.4817C10.7137 84.664 10.7522 84.822 10.8292 84.9559C10.9089 85.0897 11.0166 85.2036 11.1521 85.2976C11.2876 85.3887 11.4377 85.4656 11.6024 85.5282C11.7671 85.5909 11.9332 85.6436 12.1005 85.6863L12.8657 85.8913C13.1739 85.9682 13.4702 86.0721 13.7544 86.2031C14.0414 86.3341 14.2978 86.4993 14.5236 86.6986C14.7521 86.898 14.9328 87.1386 15.0656 87.4205C15.1984 87.7024 15.2649 88.0327 15.2649 88.4115C15.2649 88.9241 15.1426 89.3754 14.8982 89.7655C14.6538 90.1528 14.3004 90.4561 13.8381 90.6754C13.3785 90.8918 12.8219 91 12.1683 91C11.5333 91 10.982 90.8946 10.5144 90.6839C10.0495 90.4732 9.68547 90.1656 9.42244 89.7613C9.16207 89.3569 9.02125 88.8643 9 88.2833H10.4546C10.4759 88.588 10.5636 88.8415 10.7177 89.0437C10.8718 89.2458 11.0723 89.3968 11.3194 89.4964C11.5692 89.5961 11.8481 89.6459 12.1563 89.6459C12.4778 89.6459 12.7594 89.5947 13.0012 89.4922C13.2457 89.3868 13.4369 89.2416 13.5751 89.0565C13.7133 88.8685 13.7837 88.6493 13.7863 88.3987C13.7837 88.1709 13.7212 87.9829 13.599 87.8348C13.4768 87.6839 13.3054 87.5586 13.0849 87.4589C12.8671 87.3564 12.612 87.2653 12.3197 87.1856L11.3912 86.9293C10.719 86.7442 10.1876 86.4637 9.79706 86.0878C9.40916 85.7091 9.21521 85.2065 9.21521 84.58C9.21521 84.0645 9.34539 83.6132 9.60576 83.2259C9.86879 82.8386 10.2261 82.5382 10.6778 82.3246C11.1295 82.1082 11.6409 82 12.2121 82C12.7913 82 13.2988 82.1082 13.7345 82.3246C14.1729 82.5382 14.517 82.8358 14.7667 83.2174C15.0164 83.5961 15.1453 84.0318 15.1533 84.5244H13.7305Z" fill="white"/>
<path d="M16.583 90.8676V82.1196H18.0615V85.823H21.8436V82.1196H23.3261V90.8676H21.8436V87.1514H18.0615V90.8676H16.583Z" fill="white"/>
<path d="M32.2272 86.4936C32.2272 87.4362 32.0625 88.2435 31.733 88.9155C31.4062 89.5847 30.9599 90.0973 30.394 90.4533C29.8307 90.8092 29.1918 90.9872 28.4771 90.9872C27.7624 90.9872 27.1221 90.8092 26.5562 90.4533C25.9929 90.0944 25.5466 89.5804 25.2171 88.9112C24.8903 88.2392 24.7269 87.4333 24.7269 86.4936C24.7269 85.551 24.8903 84.7451 25.2171 84.0759C25.5466 83.4039 25.9929 82.8899 26.5562 82.5339C27.1221 82.178 27.7624 82 28.4771 82C29.1918 82 29.8307 82.178 30.394 82.5339C30.9599 82.8899 31.4062 83.4039 31.733 84.0759C32.0625 84.7451 32.2272 85.551 32.2272 86.4936ZM30.7407 86.4936C30.7407 85.8301 30.6437 85.2705 30.4498 84.8149C30.2585 84.3564 29.9928 84.0104 29.6527 83.7769C29.3126 83.5406 28.9208 83.4224 28.4771 83.4224C28.0334 83.4224 27.6415 83.5406 27.3014 83.7769C26.9613 84.0104 26.6943 84.3564 26.5004 84.8149C26.3091 85.2705 26.2134 85.8301 26.2134 86.4936C26.2134 87.1571 26.3091 87.7181 26.5004 88.1766C26.6943 88.6322 26.9613 88.9782 27.3014 89.2145C27.6415 89.448 28.0334 89.5648 28.4771 89.5648C28.9208 89.5648 29.3126 89.448 29.6527 89.2145C29.9928 88.9782 30.2585 88.6322 30.4498 88.1766C30.6437 87.7181 30.7407 87.1571 30.7407 86.4936Z" fill="white"/>
<path d="M35.1345 90.8676L32.831 82.1196H34.4211L35.8917 88.5482H35.9674L37.5376 82.1196H38.9843L40.5584 88.5524H40.6302L42.1007 82.1196H43.6909L41.3874 90.8676H39.9288L38.2948 84.7295H38.231L36.5931 90.8676H35.1345Z" fill="white"/>
<path d="M46.9419 82.1196H48.6117L50.6083 85.9896H50.688L52.6847 82.1196H54.3545L51.3855 87.6042V90.8676H49.9109V87.6042L46.9419 82.1196Z" fill="white"/>
<path d="M62.2344 86.4936C62.2344 87.4362 62.0697 88.2435 61.7402 88.9155C61.4134 89.5847 60.9671 90.0973 60.4012 90.4533C59.8379 90.8092 59.1989 90.9872 58.4842 90.9872C57.7695 90.9872 57.1292 90.8092 56.5633 90.4533C56.0001 90.0944 55.5537 89.5804 55.2243 88.9112C54.8975 88.2392 54.7341 87.4333 54.7341 86.4936C54.7341 85.551 54.8975 84.7451 55.2243 84.0759C55.5537 83.4039 56.0001 82.8899 56.5633 82.5339C57.1292 82.178 57.7695 82 58.4842 82C59.1989 82 59.8379 82.178 60.4012 82.5339C60.9671 82.8899 61.4134 83.4039 61.7402 84.0759C62.0697 84.7451 62.2344 85.551 62.2344 86.4936ZM60.7479 86.4936C60.7479 85.8301 60.6509 85.2705 60.457 84.8149C60.2657 84.3564 60 84.0104 59.6599 83.7769C59.3198 83.5406 58.9279 83.4224 58.4842 83.4224C58.0405 83.4224 57.6487 83.5406 57.3086 83.7769C56.9685 84.0104 56.7015 84.3564 56.5075 84.8149C56.3162 85.2705 56.2206 85.8301 56.2206 86.4936C56.2206 87.1571 56.3162 87.7181 56.5075 88.1766C56.7015 88.6322 56.9685 88.9782 57.3086 89.2145C57.6487 89.448 58.0405 89.5648 58.4842 89.5648C58.9279 89.5648 59.3198 89.448 59.6599 89.2145C60 88.9782 60.2657 88.6322 60.457 88.1766C60.6509 87.7181 60.7479 87.1571 60.7479 86.4936Z" fill="white"/>
<path d="M68.7772 82.1196H70.2558V87.8348C70.2558 88.4613 70.1176 89.0123 69.8413 89.4879C69.5676 89.9635 69.1824 90.3351 68.6856 90.6028C68.1887 90.8676 67.6082 91 66.944 91C66.2771 91 65.6953 90.8676 65.1984 90.6028C64.7016 90.3351 64.3164 89.9635 64.0427 89.4879C63.7691 89.0123 63.6322 88.4613 63.6322 87.8348V82.1196H65.1108V87.7024C65.1108 88.0669 65.1852 88.3916 65.3339 88.6763C65.4854 88.9611 65.6979 89.1846 65.9716 89.3469C66.2452 89.5064 66.5694 89.5861 66.944 89.5861C67.3186 89.5861 67.6427 89.5064 67.9164 89.3469C68.1927 89.1846 68.4053 88.9611 68.554 88.6763C68.7028 88.3916 68.7772 88.0669 68.7772 87.7024V82.1196Z" fill="white"/>
<path d="M71.8628 90.8676V82.1196H74.9235C75.5505 82.1196 76.0766 82.2364 76.5017 82.4699C76.9294 82.7034 77.2523 83.0308 77.4701 83.4523C77.6906 83.8709 77.8009 84.3593 77.8009 84.9174C77.8009 85.4784 77.6893 85.9654 77.4661 86.3783C77.2456 86.7883 76.9201 87.1058 76.4897 87.3308C76.0593 87.5529 75.5306 87.664 74.9036 87.664H72.7236V86.3484H74.7043C75.071 86.3484 75.3712 86.2943 75.605 86.186C75.8388 86.075 76.0115 85.9141 76.1231 85.7034C76.2373 85.4898 76.2944 85.2278 76.2944 84.9174C76.2944 84.607 76.2373 84.3422 76.1231 84.1229C76.0089 83.9008 75.8348 83.7328 75.601 83.6189C75.3672 83.5021 75.0657 83.4438 74.6964 83.4438H73.3414V90.8676H71.8628ZM76.0792 86.9037L78.0998 90.8676H76.4499L74.4652 86.9037H76.0792Z" fill="white"/>
<path d="M81.9456 90.8676V82.1196H83.4241V85.823H87.2062V82.1196H88.6887V90.8676H87.2062V87.1514H83.4241V90.8676H81.9456Z" fill="white"/>
<path d="M95.4417 82.1196H96.9203V87.8348C96.9203 88.4613 96.7821 89.0123 96.5058 89.4879C96.2322 89.9635 95.8469 90.3351 95.3501 90.6028C94.8532 90.8676 94.2727 91 93.6085 91C92.9416 91 92.3598 90.8676 91.863 90.6028C91.3661 90.3351 90.9809 89.9635 90.7072 89.4879C90.4336 89.0123 90.2968 88.4613 90.2968 87.8348V82.1196H91.7753V87.7024C91.7753 88.0669 91.8497 88.3916 91.9985 88.6763C92.1499 88.9611 92.3624 89.1846 92.6361 89.3469C92.9098 89.5064 93.2339 89.5861 93.6085 89.5861C93.9831 89.5861 94.3073 89.5064 94.5809 89.3469C94.8572 89.1846 95.0698 88.9611 95.2186 88.6763C95.3673 88.3916 95.4417 88.0669 95.4417 87.7024V82.1196Z" fill="white"/>
<path d="M98.5274 82.1196H100.337L102.76 88.4585H102.855L105.278 82.1196H107.088V90.8676H105.669V84.8576H105.593L103.338 90.842H102.277L100.022 84.8448H99.9461V90.8676H98.5274V82.1196Z" fill="white"/>
<path d="M109.746 90.8676H108.168L111.041 82.1196H112.866L115.744 90.8676H114.166L111.986 83.9136H111.922L109.746 90.8676ZM109.798 87.4376H114.102V88.7105H109.798V87.4376Z" fill="white"/>
<path d="M123.526 82.1196V90.8676H122.211L118.365 84.9089H118.297V90.8676H116.819V82.1196H118.142L121.984 88.0826H122.055V82.1196H123.526Z" fill="white"/>
<path d="M132.356 84.5244C132.319 84.1514 132.162 83.8609 131.886 83.6531C131.612 83.4452 131.256 83.3412 130.818 83.3412C130.51 83.3412 130.246 83.3911 130.025 83.4907C129.804 83.5904 129.636 83.7257 129.519 83.8965C129.402 84.0674 129.342 84.2625 129.34 84.4817C129.34 84.664 129.378 84.822 129.455 84.9559C129.535 85.0897 129.642 85.2036 129.778 85.2976C129.913 85.3887 130.064 85.4656 130.228 85.5282C130.393 85.5909 130.559 85.6436 130.726 85.6863L131.492 85.8913C131.8 85.9682 132.096 86.0721 132.38 86.2031C132.667 86.3341 132.924 86.4993 133.149 86.6986C133.378 86.898 133.559 87.1386 133.691 87.4205C133.824 87.7024 133.891 88.0327 133.891 88.4115C133.891 88.9241 133.769 89.3754 133.524 89.7655C133.28 90.1528 132.926 90.4561 132.464 90.6754C132.004 90.8918 131.448 91 130.794 91C130.159 91 129.608 90.8946 129.14 90.6839C128.675 90.4732 128.311 90.1656 128.048 89.7613C127.788 89.3569 127.647 88.8643 127.626 88.2833H129.08C129.102 88.588 129.189 88.8415 129.344 89.0437C129.498 89.2458 129.698 89.3968 129.945 89.4964C130.195 89.5961 130.474 89.6459 130.782 89.6459C131.104 89.6459 131.385 89.5947 131.627 89.4922C131.872 89.3868 132.063 89.2416 132.201 89.0565C132.339 88.8685 132.41 88.6493 132.412 88.3987C132.41 88.1709 132.347 87.9829 132.225 87.8348C132.103 87.6839 131.931 87.5586 131.711 87.4589C131.493 87.3564 131.238 87.2653 130.946 87.1856L130.017 86.9293C129.345 86.7442 128.813 86.4637 128.423 86.0878C128.035 85.7091 127.841 85.2065 127.841 84.58C127.841 84.0645 127.971 83.6132 128.232 83.2259C128.495 82.8386 128.852 82.5382 129.304 82.3246C129.755 82.1082 130.267 82 130.838 82C131.417 82 131.925 82.1082 132.36 82.3246C132.799 82.5382 133.143 82.8358 133.393 83.2174C133.642 83.5961 133.771 84.0318 133.779 84.5244H132.356Z" fill="white"/>
<path d="M136.687 82.1196V90.8676H135.209V82.1196H136.687Z" fill="white"/>
<path d="M141.054 90.8676H138.288V82.1196H141.11C141.92 82.1196 142.617 82.2947 143.198 82.645C143.783 82.9924 144.232 83.4922 144.545 84.1443C144.859 84.7964 145.016 85.5766 145.016 86.4851C145.016 87.3963 144.858 88.1794 144.541 88.8344C144.228 89.4893 143.775 89.9919 143.182 90.3422C142.593 90.6925 141.883 90.8676 141.054 90.8676ZM139.767 89.4964H140.983C141.551 89.4964 142.025 89.3854 142.405 89.1633C142.785 88.9383 143.071 88.6037 143.262 88.1595C143.453 87.7124 143.549 87.1542 143.549 86.4851C143.549 85.8159 143.453 85.2606 143.262 84.8192C143.071 84.3749 142.788 84.0432 142.413 83.8239C142.041 83.6018 141.579 83.4907 141.026 83.4907H139.767V89.4964Z" fill="white"/>
<path d="M146.42 90.8676V82.1196H151.729V83.448H147.899V85.823H151.454V87.1514H147.899V89.5392H151.761V90.8676H146.42Z" fill="white"/>
<path d="M157.235 85.2634L156.023 82.1196H156.633L157.418 84.2724L158.207 82.1196H158.817L157.601 85.2634H157.235ZM155.836 85.2634V82.1196H156.501V85.2634H155.836ZM158.338 85.2634V82.1196H159V85.2634H158.338ZM153.771 85.2634V82.393H154.433V85.2634H153.771ZM152.879 82.7133V82.1196H155.326V82.7133H152.879Z" fill="white"/>
</svg>
